<svg width="664" height="131" viewBox="0 0 664 131" fill="none" xmlns="http://www.w3.org/2000/svg">
<path d="M0.57241 0.86377H17.8638V37.6445C18.9384 35.9349 20.2084 34.4207 21.6737 33.1019C23.1391 31.7342 24.6777 30.6108 26.2896 29.7315C27.9504 28.8035 29.66 28.1196 31.4184 27.68C33.1769 27.1916 34.9109 26.9473 36.6205 26.9473C41.4562 26.9473 45.7058 27.9731 49.3692 30.0246C53.0815 32.0761 56.1832 34.8848 58.6743 38.4505C61.1654 41.9674 63.0216 46.0948 64.2427 50.8329C65.5127 55.5709 66.1477 60.602 66.1477 65.9262C66.1477 71.2992 65.4394 76.3303 64.0229 81.0195C62.6064 85.7086 60.5549 89.7873 57.8683 93.2553C55.2307 96.7233 52.0069 99.4587 48.1969 101.461C44.3869 103.464 40.0885 104.465 35.3017 104.465C33.8851 104.465 32.3709 104.294 30.759 103.952C29.196 103.611 27.6329 103.073 26.0698 102.341C24.5556 101.559 23.0902 100.558 21.6737 99.3366C20.2572 98.0666 18.9872 96.5524 17.8638 94.7939V103H0.57241V0.86377ZM17.8638 65.9262C17.8638 69.2965 18.2057 72.4715 18.8895 75.4511C19.5734 78.3818 20.5747 80.9706 21.8935 83.2175C23.2124 85.4156 24.8243 87.1496 26.7292 88.4196C28.6342 89.6896 30.8079 90.3246 33.2501 90.3246C35.7413 90.3246 37.9637 89.6896 39.9176 88.4196C41.8714 87.1496 43.5077 85.4156 44.8266 83.2175C46.1454 80.9706 47.1467 78.3818 47.8306 75.4511C48.5144 72.4715 48.8563 69.2965 48.8563 65.9262C48.8563 62.5558 48.5144 59.4053 47.8306 56.4745C47.1467 53.4949 46.1454 50.9061 44.8266 48.7081C43.5077 46.51 41.8714 44.776 39.9176 43.506C37.9637 42.1872 35.7413 41.5278 33.2501 41.5278C30.8567 41.5278 28.7319 42.1383 26.8758 43.3595C25.0197 44.5806 23.4322 46.2658 22.1133 48.415C20.7945 50.5154 19.7687 52.9821 19.0361 55.8151C18.3522 58.6482 17.9615 61.6766 17.8638 64.9004V65.9262ZM78.7578 28.4127H91.5798L94.4372 37.5713C96.6841 34.0544 99.0043 31.4167 101.398 29.6583C103.84 27.851 106.502 26.9473 109.384 26.9473C110.263 26.9473 111.68 27.1427 113.634 27.5335C115.587 27.8754 117.932 28.8035 120.667 30.3177V45.2645C118.86 44.5806 117.297 44.0433 115.978 43.6525C114.708 43.2618 113.634 42.9931 112.754 42.8466C111.924 42.6512 111.265 42.5535 110.776 42.5535C110.337 42.5047 110.019 42.4803 109.824 42.4803C107.674 42.4803 105.745 42.9443 104.035 43.8724C102.326 44.7516 100.885 45.9483 99.7126 47.4625C98.5403 48.9279 97.6366 50.6375 97.0016 52.5913C96.3667 54.5451 96.0492 56.5722 96.0492 58.6726V103H78.7578V28.4127ZM141.304 70.3223C141.597 73.0088 142.232 75.5732 143.209 78.0155C144.186 80.4089 145.431 82.5337 146.945 84.3898C148.46 86.1971 150.218 87.638 152.221 88.7127C154.223 89.7873 156.373 90.3246 158.668 90.3246C162.918 90.3246 166.435 89.1767 169.219 86.8809C172.052 84.5363 174.299 81.0439 175.96 76.4035H191.932C190.955 80.8485 189.368 84.805 187.17 88.273C185.021 91.7411 182.456 94.6718 179.477 97.0653C176.497 99.4587 173.2 101.29 169.585 102.56C166.02 103.83 162.332 104.465 158.522 104.465C153.149 104.465 148.313 103.391 144.015 101.242C139.716 99.0923 136.053 96.2105 133.024 92.5959C129.996 88.9813 127.651 84.7806 125.991 79.9937C124.379 75.158 123.573 70.078 123.573 64.7539C123.573 59.7716 124.379 55.0092 125.991 50.4665C127.651 45.875 129.996 41.8453 133.024 38.3772C136.053 34.8603 139.716 32.0761 144.015 30.0246C148.362 27.9731 153.222 26.9473 158.595 26.9473C163.773 26.9473 168.462 27.8754 172.663 29.7315C176.863 31.5877 180.454 34.1765 183.433 37.498C186.413 40.7707 188.684 44.6539 190.247 49.1477C191.859 53.5926 192.665 58.4039 192.665 63.5816V70.3223H141.304ZM175.081 57.2072C174.787 54.8626 174.177 52.7378 173.249 50.8329C172.37 48.9279 171.197 47.2915 169.732 45.9239C168.267 44.5073 166.533 43.4327 164.53 42.7001C162.527 41.9185 160.329 41.5278 157.936 41.5278C155.738 41.5278 153.686 41.943 151.781 42.7733C149.925 43.6037 148.264 44.7272 146.799 46.1437C145.382 47.5602 144.186 49.221 143.209 51.1259C142.281 53.0309 141.646 55.058 141.304 57.2072H175.081ZM272.76 101.022C271.343 101.901 270.098 102.56 269.023 103C267.948 103.488 266.971 103.83 266.092 104.026C265.262 104.27 264.529 104.392 263.894 104.392C263.308 104.441 262.795 104.465 262.355 104.465C260.597 104.465 258.985 104.148 257.52 103.513C256.103 102.878 254.833 102.048 253.71 101.022C252.635 99.9471 251.683 98.726 250.852 97.3583C250.071 95.9418 249.411 94.452 248.874 92.889C246.676 95.1847 244.6 97.0897 242.646 98.6039C240.692 100.069 238.763 101.242 236.858 102.121C234.953 103 233.048 103.611 231.143 103.952C229.238 104.294 227.26 104.465 225.208 104.465C221.838 104.465 218.687 103.952 215.757 102.927C212.875 101.852 210.359 100.362 208.21 98.4574C206.061 96.5035 204.376 94.1589 203.155 91.4236C201.933 88.6882 201.323 85.6598 201.323 82.3383C201.323 79.4564 201.958 76.9653 203.228 74.8649C204.547 72.7645 206.256 70.9328 208.357 69.3698C210.506 67.8067 212.924 66.4635 215.61 65.34C218.346 64.2166 221.105 63.2152 223.89 62.336C226.723 61.4079 229.482 60.5287 232.169 59.6983C234.904 58.868 237.322 57.9887 239.422 57.0607C241.572 56.1326 243.281 55.1069 244.551 53.9834C245.87 52.8111 246.529 51.419 246.529 49.8071C246.529 48.244 246.114 46.9496 245.284 45.9239C244.502 44.8493 243.477 43.9945 242.207 43.3595C240.985 42.6756 239.593 42.1872 238.03 41.8941C236.516 41.601 235.026 41.4545 233.561 41.4545C232.096 41.4545 230.63 41.6743 229.165 42.1139C227.699 42.5047 226.356 43.1397 225.135 44.0189C223.963 44.8981 222.961 46.046 222.131 47.4625C221.301 48.8302 220.763 50.4665 220.519 52.3715H203.008C203.301 48.0731 204.351 44.3364 206.159 41.1614C208.015 37.9376 210.359 35.2755 213.192 33.1752C216.025 31.0748 219.2 29.5117 222.717 28.486C226.283 27.4602 229.898 26.9473 233.561 26.9473C237.566 26.9473 241.376 27.387 244.991 28.2662C248.654 29.1454 251.878 30.5375 254.662 32.4425C257.446 34.3475 259.669 36.7897 261.33 39.7693C262.99 42.7001 263.821 46.2414 263.821 50.3932V86.5879C263.821 87.5648 264.138 88.4684 264.773 89.2988C265.408 90.0803 266.312 90.4711 267.484 90.4711C267.631 90.4711 268.168 90.4222 269.096 90.3246C270.024 90.178 271.245 89.6896 272.76 88.8592V101.022ZM246.529 67.245C245.406 67.9288 243.941 68.5394 242.133 69.0767C240.326 69.614 238.372 70.1757 236.272 70.7619C234.172 71.2992 232.047 71.8853 229.898 72.5203C227.797 73.1553 225.892 73.9124 224.183 74.7916C222.473 75.622 221.056 76.6234 219.933 77.7957C218.858 78.9191 218.321 80.2624 218.321 81.8254C218.321 83.3396 218.565 84.634 219.054 85.7086C219.542 86.7832 220.177 87.6625 220.959 88.3463C221.789 89.0301 222.717 89.543 223.743 89.8849C224.769 90.178 225.795 90.3246 226.82 90.3246C230.191 90.3246 233.61 89.2011 237.078 86.9542C240.595 84.6585 243.745 81.2148 246.529 76.6234V67.245ZM317.56 56.8409C322.005 64.4119 326.548 72.1051 331.188 79.9204C335.877 87.7357 340.444 95.4289 344.889 103H325.327L305.471 69.0034C304.347 70.1269 303.297 71.1771 302.32 72.154C301.343 73.1309 300.464 74.0345 299.683 74.8649C298.803 75.793 297.949 76.6722 297.118 77.5026V103H279.827V0.86377H297.118V55.7418L324.887 28.4127H345.988L317.56 56.8409ZM354.115 28.4127H371.407V36.6188C372.53 34.8603 373.8 33.3705 375.217 32.1494C376.633 30.8794 378.099 29.8781 379.613 29.1454C381.176 28.3639 382.739 27.8021 384.302 27.4602C385.914 27.1183 387.428 26.9473 388.845 26.9473C393.632 26.9473 397.93 27.9487 401.74 29.9513C405.55 31.954 408.774 34.6894 411.411 38.1574C414.098 41.6255 416.149 45.7041 417.566 50.3932C418.982 55.0824 419.691 60.1135 419.691 65.4865C419.691 70.8107 419.056 75.8418 417.786 80.5799C416.565 85.3179 414.708 89.4698 412.217 93.0355C409.726 96.5524 406.625 99.3366 402.912 101.388C399.249 103.44 394.999 104.465 390.164 104.465C388.454 104.465 386.72 104.221 384.962 103.733C383.203 103.293 381.493 102.634 379.833 101.754C378.221 100.826 376.682 99.7029 375.217 98.3841C373.751 97.0164 372.481 95.4778 371.407 93.7682V130.769H354.115V28.4127ZM371.407 66.5123C371.505 69.7361 371.895 72.7645 372.579 75.5976C373.312 78.4306 374.338 80.9218 375.656 83.071C376.975 85.1713 378.563 86.8321 380.419 88.0532C382.275 89.2744 384.4 89.8849 386.793 89.8849C389.284 89.8849 391.507 89.25 393.461 87.98C395.414 86.6611 397.051 84.9027 398.37 82.7046C399.688 80.5066 400.69 77.9422 401.374 75.0114C402.057 72.0319 402.399 68.8569 402.399 65.4865C402.399 62.1162 402.057 58.9657 401.374 56.0349C400.69 53.0553 399.688 50.4665 398.37 48.2685C397.051 46.0216 395.414 44.2631 393.461 42.9931C391.507 41.7231 389.284 41.0882 386.793 41.0882C384.351 41.0882 382.177 41.7231 380.272 42.9931C378.367 44.2631 376.755 46.0216 375.437 48.2685C374.118 50.4665 373.116 53.0553 372.433 56.0349C371.749 58.9657 371.407 62.1162 371.407 65.4865V66.5123ZM430.28 65.8529C430.28 60.5287 431.061 55.522 432.624 50.8329C434.187 46.0948 436.459 41.9674 439.438 38.4505C442.418 34.8848 446.081 32.0761 450.429 30.0246C454.825 27.9731 459.807 26.9473 465.375 26.9473C470.944 26.9473 475.902 27.9731 480.249 30.0246C484.645 32.0761 488.333 34.8848 491.312 38.4505C494.341 41.9674 496.637 46.0948 498.2 50.8329C499.812 55.522 500.617 60.5287 500.617 65.8529C500.617 71.1282 499.836 76.1105 498.273 80.7997C496.71 85.4888 494.414 89.5919 491.386 93.1088C488.406 96.6256 484.718 99.4098 480.322 101.461C475.975 103.464 471.017 104.465 465.449 104.465C459.88 104.465 454.898 103.464 450.502 101.461C446.155 99.4098 442.467 96.6256 439.438 93.1088C436.459 89.5919 434.187 85.4888 432.624 80.7997C431.061 76.1105 430.28 71.1282 430.28 65.8529ZM447.571 65.8529C447.571 69.1744 447.986 72.3005 448.817 75.2313C449.647 78.162 450.819 80.7264 452.334 82.9244C453.897 85.1225 455.777 86.8565 457.975 88.1265C460.173 89.3965 462.64 90.0315 465.375 90.0315C468.111 90.0315 470.577 89.3965 472.775 88.1265C475.022 86.8565 476.927 85.1225 478.49 82.9244C480.053 80.7264 481.25 78.162 482.081 75.2313C482.911 72.3005 483.326 69.1744 483.326 65.8529C483.326 62.5314 482.911 59.4053 482.081 56.4745C481.25 53.4949 480.053 50.9061 478.49 48.7081C476.927 46.51 475.022 44.776 472.775 43.506C470.577 42.1872 468.111 41.5278 465.375 41.5278C462.64 41.5278 460.173 42.1872 457.975 43.506C455.777 44.776 453.897 46.51 452.334 48.7081C450.819 50.9061 449.647 53.4949 448.817 56.4745C447.986 59.4053 447.571 62.5314 447.571 65.8529ZM529.933 0.86377V18.0819H512.641V0.86377H529.933ZM529.933 28.4127V103H512.641V28.4127H529.933ZM546.909 28.4127H564.2V37.2049C567.424 33.5415 570.794 30.9283 574.311 29.3652C577.877 27.7533 581.516 26.9473 585.228 26.9473C589.038 26.9473 592.457 27.5091 595.486 28.6325C598.514 29.756 601.054 31.3679 603.105 33.4682C605.206 35.5197 606.818 38.0109 607.941 40.9416C609.065 43.8235 609.626 47.0473 609.626 50.6131V103H592.335V53.3973C592.335 51.4923 592.066 49.8071 591.529 48.3417C590.992 46.8764 590.259 45.6308 589.331 44.605C588.403 43.5793 587.304 42.8222 586.034 42.3337C584.764 41.7964 583.421 41.5278 582.004 41.5278C579.708 41.5278 577.486 42.0162 575.337 42.9931C573.188 43.9212 571.283 45.1912 569.622 46.8031C568.01 48.3662 566.691 50.1979 565.665 52.2982C564.688 54.3497 564.2 56.499 564.2 58.7458V103H546.909V28.4127ZM648.665 7.89754V28.4127H662.366V42.5535H648.665V83.1442C648.665 85.1958 649.129 86.9054 650.057 88.273C651.034 89.6407 652.377 90.3246 654.087 90.3246C654.624 90.3246 655.699 90.2513 657.311 90.1048C658.923 89.9094 661.145 89.25 663.978 88.1265V101.754C660.95 102.927 658.068 103.659 655.332 103.952C652.646 104.294 650.424 104.465 648.665 104.465C646.369 104.465 644.171 104.001 642.071 103.073C639.971 102.145 638.114 100.851 636.503 99.19C634.939 97.4804 633.694 95.4289 632.766 93.0355C631.838 90.6421 631.374 87.98 631.374 85.0492V42.5535H620.75V28.4127H631.374V7.89754H648.665Z" fill="black"/>
</svg>
